Coordinates
version=1
nRows=25
nColumns=34
inDegrees=no

Units are S.I. units (second, meters, Newtons, ...)
If the header above contains a line with 'inDegrees', this indicates whether rotational values are in degrees (yes) or radians (no).

endheader
time	pelvis_tilt	pelvis_list	pelvis_rotation	pelvis_tx	pelvis_ty	pelvis_tz	hip_flexion_r	hip_adduction_r	hip_rotation_r	knee_angle_r	ankle_angle_r	subtalar_angle_r	mtp_angle_r	hip_flexion_l	hip_adduction_l	hip_rotation_l	knee_angle_l	ankle_angle_l	subtalar_angle_l	mtp_angle_l	lumbar_extension	lumbar_bending	lumbar_rotation	arm_flex_r	arm_add_r	arm_rot_r	elbow_flex_r	pro_sup_r	arm_flex_l	arm_add_l	arm_rot_l	elbow_flex_l	pro_sup_l
12.16	-0.530014	0.0348015	-0.0468545	-0.348006	0.633375	-0.63495	1.81	-0.262059	0.123585	1.82453	0.63283	-0.0273971	-0.117661	1.79584	-0.314152	0.100145	1.82053	0.660287	0.126948	-0.117661	-0.291485	-0.0164559	0.0075877	0.0467495	-0.262411	-0.207313	1.30477	1.62716	0.0963609	-0.284124	-0.144916	1.21821	1.38205
12.17	-0.529967	0.0358771	-0.0475155	-0.348105	0.633361	-0.634882	1.81057	-0.262126	0.124113	1.82445	0.63301	-0.025963	-0.117661	1.79585	-0.316134	0.0982959	1.82084	0.660224	0.128878	-0.117661	-0.292631	-0.0171836	0.00784186	0.046548	-0.262188	-0.206733	1.30234	1.62452	0.0979772	-0.284185	-0.143073	1.21344	1.3808
12.18	-0.529838	0.0368227	-0.0482174	-0.348192	0.633424	-0.634802	1.81087	-0.262159	0.124449	1.82421	0.63315	-0.024603	-0.117661	1.79572	-0.318357	0.0964004	1.82103	0.66017	0.131128	-0.117661	-0.293797	-0.0178638	0.00815467	0.0462447	-0.261885	-0.206431	1.29983	1.62194	0.0994886	-0.283978	-0.141372	1.2086	1.37951
12.19	-0.529669	0.0375962	-0.0488858	-0.348271	0.633556	-0.634719	1.81093	-0.262236	0.124553	1.82383	0.633233	-0.0233001	-0.117661	1.79546	-0.320594	0.0945863	1.82103	0.660117	0.133446	-0.117661	-0.294943	-0.0184345	0.00842031	0.0459055	-0.261501	-0.206288	1.29725	1.6195	0.100846	-0.283566	-0.139842	1.20375	1.37834
12.2	-0.529513	0.0381704	-0.0494332	-0.348344	0.633747	-0.63464	1.81083	-0.262443	0.124411	1.82332	0.633251	-0.0220423	-0.117661	1.7951	-0.322591	0.0929745	1.82081	0.660047	0.135552	-0.117661	-0.296018	-0.0188482	0.00852603	0.0455773	-0.261038	-0.206191	1.29464	1.61728	0.102002	-0.283026	-0.138498	1.19895	1.37736
12.21	-0.529414	0.0385466	-0.0497833	-0.348414	0.63399	-0.634573	1.81063	-0.262841	0.124042	1.82271	0.6332	-0.0208346	-0.117661	1.79467	-0.324141	0.0916356	1.82032	0.659942	0.137227	-0.117661	-0.296973	-0.0190894	0.0083752	0.0452803	-0.2605	-0.206034	1.29201	1.61528	0.102919	-0.282433	-0.137339	1.19428	1.37655
12.22	-0.529396	0.0387539	-0.0498921	-0.34848	0.634275	-0.634521	1.81038	-0.263441	0.123508	1.822	0.633084	-0.0197121	-0.117661	1.79418	-0.325144	0.0905716	1.81957	0.659786	0.138369	-0.117661	-0.297778	-0.0191793	0.00790962	0.0450066	-0.2599	-0.205735	1.2894	1.61352	0.103574	-0.281853	-0.136348	1.1898	1.37577
12.23	-0.529459	0.0388354	-0.0497567	-0.348543	0.634595	-0.634481	1.81008	-0.264195	0.122892	1.8212	0.632908	-0.0187417	-0.117661	1.79365	-0.325616	0.0897311	1.81859	0.659572	0.139008	-0.117661	-0.298422	-0.0191635	0.00712211	0.0447256	-0.259257	-0.205239	1.28683	1.61203	0.10396	-0.281327	-0.135498	1.18556	1.3748
12.24	-0.529588	0.0388297	-0.049411	-0.3486	0.634946	-0.634448	1.80973	-0.265014	0.122265	1.82032	0.632678	-0.0180033	-0.117661	1.79308	-0.325669	0.0890424	1.81742	0.659299	0.139264	-0.117661	-0.298913	-0.0190935	0.00605677	0.0443909	-0.258592	-0.204525	1.28432	1.61084	0.104087	-0.280878	-0.134765	1.18159	1.37341
12.25	-0.52976	0.0387596	-0.0489131	-0.348649	0.635323	-0.634414	1.80929	-0.265802	0.121667	1.81936	0.632405	-0.0175556	-0.117661	1.79248	-0.325458	0.0884421	1.81612	0.658973	0.139302	-0.117661	-0.299271	-0.0190089	0.00479632	0.043949	-0.25793	-0.203607	1.28193	1.60999	0.103981	-0.280506	-0.134125	1.17793	1.37139
12.26	-0.529951	0.0386308	-0.0483283	-0.348687	0.635724	-0.634371	1.80874	-0.266487	0.121101	1.81832	0.632103	-0.0174146	-0.117661	1.79188	-0.325138	0.08789	1.81474	0.658608	0.139279	-0.117661	-0.299513	-0.018929	0.00344098	0.04335	-0.257288	-0.202531	1.2797	1.60949	0.103677	-0.280193	-0.133559	1.17455	1.36863
12.27	-0.530148	0.0384386	-0.0477147	-0.348713	0.636145	-0.634315	1.80806	-0.267032	0.120542	1.81721	0.631788	-0.017554	-0.117661	1.79128	-0.324828	0.0873706	1.81333	0.658221	0.139308	-0.117661	-0.299656	-0.0188539	0.00208542	0.0425573	-0.256682	-0.201361	1.2777	1.6093	0.103213	-0.279904	-0.133059	1.17142	1.36512
12.28	-0.530343	0.0381744	-0.047115	-0.348728	0.636587	-0.634247	1.80724	-0.267435	0.119956	1.81603	0.631477	-0.0179218	-0.117661	1.79069	-0.3246	0.0868872	1.8119	0.657831	0.139449	-0.117661	-0.299708	-0.0187722	0.000802633	0.0415558	-0.25612	-0.200165	1.27599	1.60936	0.102621	-0.279603	-0.132626	1.1685	1.36095
12.29	-0.530537	0.0378287	-0.0465557	-0.34873	0.637053	-0.634166	1.80629	-0.267718	0.1193	1.81479	0.631178	-0.0184569	-0.117661	1.79011	-0.324483	0.0864556	1.81046	0.65745	0.139717	-0.117661	-0.299681	-0.0186676	-0.000361019	0.0403549	-0.255604	-0.199	1.27459	1.60959	0.101931	-0.27926	-0.13228	1.16572	1.35636
12.3	-0.53073	0.0373899	-0.0460493	-0.348722	0.637546	-0.634076	1.80522	-0.267918	0.118529	1.81349	0.630895	-0.0191016	-0.117661	1.78954	-0.324476	0.0861001	1.809	0.657083	0.140099	-0.117661	-0.299589	-0.0185211	-0.00138285	0.038986	-0.255133	-0.197901	1.27352	1.60991	0.10117	-0.278861	-0.13205	1.16301	1.3517
12.31	-0.530924	0.0368417	-0.045595	-0.348706	0.638075	-0.633979	1.80403	-0.268077	0.117594	1.81212	0.630622	-0.0198043	-0.117661	1.78897	-0.324555	0.085849	1.8075	0.656729	0.140567	-0.117661	-0.299448	-0.0183083	-0.00225915	0.0374962	-0.254709	-0.196881	1.27274	1.61026	0.100365	-0.278401	-0.131966	1.16029	1.34741
12.32	-0.531123	0.0361649	-0.0451781	-0.348683	0.638649	-0.633878	1.80271	-0.268251	0.116448	1.81067	0.630351	-0.020519	-0.117661	1.78839	-0.324682	0.0857289	1.80593	0.65638	0.141078	-0.117661	-0.299275	-0.0179979	-0.00300154	0.0359409	-0.254337	-0.195941	1.27219	1.61061	0.0995456	-0.277886	-0.132037	1.15748	1.34382
12.33	-0.531335	0.0353403	-0.0447717	-0.348657	0.639281	-0.63378	1.80127	-0.268498	0.11505	1.80911	0.630071	-0.0212022	-0.117661	1.78779	-0.324802	0.0857565	1.80426	0.656019	0.141588	-0.117661	-0.299082	-0.0175533	-0.00363306	0.0343784	-0.25402	-0.195085	1.2718	1.61098	0.0987476	-0.277322	-0.13225	1.15454	1.34111
12.34	-0.531567	0.0343546	-0.0443416	-0.348628	0.639986	-0.63369	1.79968	-0.268881	0.113372	1.8074	0.629773	-0.0218138	-0.117661	1.78715	-0.324853	0.085931	1.80244	0.655627	0.142056	-0.117661	-0.298875	-0.0169392	-0.00418242	0.0328673	-0.253753	-0.194336	1.27147	1.61144	0.098009	-0.27671	-0.132573	1.15141	1.33925
12.35	-0.53182	0.0332029	-0.0438561	-0.348597	0.640781	-0.633616	1.79791	-0.269453	0.111398	1.80551	0.629445	-0.0223204	-0.117661	1.78644	-0.324786	0.0862308	1.80043	0.655182	0.14245	-0.117661	-0.298658	-0.0161268	-0.00467546	0.0314652	-0.253518	-0.193732	1.27107	1.61208	0.0973668	-0.276045	-0.132965	1.14806	1.33803
12.36	-0.532096	0.0318883	-0.0432969	-0.348564	0.641685	-0.633562	1.79592	-0.270239	0.109125	1.80336	0.629077	-0.0227018	-0.117661	1.78561	-0.324573	0.0866176	1.79818	0.654664	0.142756	-0.117661	-0.29843	-0.0150969	-0.00512582	0.0302277	-0.253288	-0.19332	1.27049	1.61301	0.0968496	-0.275314	-0.133385	1.14446	1.33717
12.37	-0.532393	0.0304188	-0.0426673	-0.348525	0.64272	-0.633533	1.79365	-0.271234	0.106552	1.80088	0.628654	-0.0229557	-0.117661	1.78462	-0.324219	0.0870466	1.79565	0.654053	0.142969	-0.117661	-0.298178	-0.0138398	-0.00552854	0.029206	-0.25303	-0.193129	1.26961	1.61433	0.0964696	-0.2745	-0.133797	1.14059	1.33643
12.38	-0.53271	0.0288022	-0.0419959	-0.348477	0.643907	-0.633529	1.79104	-0.272396	0.103673	1.79799	0.628162	-0.0230991	-0.117661	1.78341	-0.323766	0.0874792	1.79277	0.653335	0.143097	-0.117661	-0.297875	-0.0123523	-0.00585752	0.0284449	-0.252713	-0.193152	1.26829	1.61606	0.0962174	-0.273592	-0.134184	1.13641	1.33562
12.39	-0.533046	0.0270399	-0.0413347	-0.348414	0.645266	-0.633546	1.78801	-0.273654	0.100462	1.79463	0.627586	-0.0231679	-0.117661	1.78192	-0.323281	0.0878951	1.78949	0.652497	0.143153	-0.117661	-0.297484	-0.0106349	-0.00606686	0.0279771	-0.252311	-0.193348	1.26643	1.61812	0.096064	-0.272581	-0.13454	1.13191	1.33469
12.4	-0.533398	0.0251241	-0.0407496	-0.348328	0.646817	-0.633578	1.78448	-0.274919	0.0968782	1.79069	0.626906	-0.0232133	-0.117661	1.78011	-0.322845	0.0882985	1.78577	0.65153	0.143156	-0.117661	-0.296959	-0.00868754	-0.00609737	0.0278162	-0.251804	-0.193657	1.26391	1.62033	0.0959674	-0.271467	-0.134865	1.12703	1.33372
